<svg width="22" height="18" viewBox="0 0 22 18" fill="none" xmlns="http://www.w3.org/2000/svg">
<path d="M17.875 0.75C16.3556 0.75 15.125 1.98062 15.125 3.5H13.75V4.875H17.875V3.5H16.5C16.5 2.68119 17.0562 2.125 17.875 2.125C18.6938 2.125 19.25 2.68119 19.25 3.5V7.625H0.6875V9H1.50425L2.55612 14.2209V14.2422C2.63597 14.5927 2.80427 14.917 3.04496 15.184C3.28566 15.4511 3.59074 15.652 3.93112 15.7677L3.4375 17.25H4.8125L5.2635 15.875H16.7365L17.1875 17.25H18.5625L18.0682 15.7677C18.788 15.5477 19.3469 14.9703 19.5078 14.2422V14.2209L20.4964 9H21.3125V7.625H20.625V3.5C20.625 1.98062 19.3944 0.75 17.875 0.75ZM2.90056 9H19.1208L18.1541 13.9631C18.0737 14.2607 17.8214 14.5 17.4666 14.5H4.598C4.2295 14.5 3.97994 14.2559 3.9105 13.9411L2.90056 9Z" fill="#1AA090"/>
</svg>
