<svg width="20" height="15" viewBox="0 0 20 15" fill="none" xmlns="http://www.w3.org/2000/svg">
<path d="M3.125 0.125C1.99406 0.125 1.0625 1.05656 1.0625 2.1875V6.84944C0.643125 7.22825 0.375 7.77069 0.375 8.375V14.5625H3.8125V13.1875H16.1875V14.5625H19.625V8.375C19.625 7.77069 19.3569 7.22825 18.9375 6.84944V2.1875C18.9375 1.05656 18.0059 0.125 16.875 0.125H3.125ZM3.125 1.5H16.875C17.2566 1.5 17.5625 1.80594 17.5625 2.1875V6.3125H16.1875V5.625C16.1875 4.49406 15.2559 3.5625 14.125 3.5625H11.375C10.8484 3.5625 10.3651 3.76875 10 4.09944C9.62416 3.75605 9.13408 3.56468 8.625 3.5625H5.875C4.74406 3.5625 3.8125 4.49406 3.8125 5.625V6.3125H2.4375V2.1875C2.4375 1.80594 2.74344 1.5 3.125 1.5ZM5.875 4.9375H8.625C9.00656 4.9375 9.3125 5.24344 9.3125 5.625V6.3125H5.1875V5.625C5.1875 5.24344 5.49344 4.9375 5.875 4.9375ZM11.375 4.9375H14.125C14.5066 4.9375 14.8125 5.24344 14.8125 5.625V6.3125H10.6875V5.625C10.6875 5.24344 10.9934 4.9375 11.375 4.9375ZM2.4375 7.6875H17.5625C17.9441 7.6875 18.25 7.99344 18.25 8.375V13.1875H17.5625V11.8125H2.4375V13.1875H1.75V8.375C1.75 7.99344 2.05594 7.6875 2.4375 7.6875Z" fill="#1AA090"/>
</svg>
