<svg width="16" height="16" viewBox="0 0 16 16" fill="none" xmlns="http://www.w3.org/2000/svg">
<path d="M0.4375 0.4375V5.25H1.8125V10.75H0.4375V15.5625H5.25V14.1875H10.75V15.5625H15.5625V10.75H14.1875V5.25H15.5625V0.4375H10.75V1.8125H5.25V0.4375H0.4375ZM1.8125 1.8125H3.875V3.875H1.8125V1.8125ZM12.125 1.8125H14.1875V3.875H12.125V1.8125ZM5.25 3.1875H10.75V5.25H12.8125V10.75H10.75V12.8125H5.25V10.75H3.1875V5.25H5.25V3.1875ZM1.8125 12.125H3.875V14.1875H1.8125V12.125ZM12.125 12.125H14.1875V14.1875H12.125V12.125Z" fill="#1AA090"/>
</svg>
