<svg width="130" height="34" viewBox="0 0 130 34" fill="none" xmlns="http://www.w3.org/2000/svg">
<path d="M4.18521 10.1623H9.36531V12.1222H1.7456V0.281921H4.18521V10.1623Z" fill="#83898F"/>
<path d="M24.2811 9.68255H20.0036L19.1904 12.1222H16.5963L21.0039 0.281921H23.2646L27.6965 12.1222H25.1024L24.2811 9.68255ZM20.6623 7.70647H23.6224L22.1342 3.27451L20.6623 7.70647Z" fill="#83898F"/>
<path d="M39.205 9.1865L41.8886 0.281921H44.6047L40.4817 12.1222H37.9364L33.8297 0.281921H36.5377L39.205 9.1865Z" fill="#83898F"/>
<path d="M59.5123 6.99085H54.8283V10.1623H60.3255V12.1222H52.3886V0.281921H60.3092V2.25801H54.8283V5.07982H59.5123V6.99085Z" fill="#83898F"/>
<path d="M78.0468 12.1222H75.6072L70.8581 4.33167V12.1222H68.4185V0.281921H70.8581L75.6154 8.08867V0.281921H78.0468V12.1222Z" fill="#83898F"/>
<path d="M86.8392 12.1222V0.281921H90.4823C91.5232 0.281921 92.453 0.51775 93.2716 0.989408C94.0957 1.45564 94.7381 2.12247 95.1989 2.98989C95.6597 3.85188 95.8901 4.83315 95.8901 5.93368V6.47853C95.8901 7.57906 95.6624 8.55762 95.207 9.41419C94.7571 10.2708 94.1201 10.9349 93.296 11.4065C92.472 11.8782 91.5422 12.1167 90.5067 12.1222H86.8392ZM89.2788 2.25801V10.1623H90.4579C91.4121 10.1623 92.1413 9.85061 92.6455 9.22716C93.1496 8.6037 93.4072 7.71189 93.418 6.55172V5.92555C93.418 4.72201 93.1686 3.81122 92.6698 3.19319C92.1711 2.56973 91.4419 2.25801 90.4823 2.25801H89.2788Z" fill="#83898F"/>
<path d="M111.456 6.99085H106.772V10.1623H112.27V12.1222H104.333V0.281921H112.253V2.25801H106.772V5.07982H111.456V6.99085Z" fill="#83898F"/>
<path d="M124.746 7.78779H122.802V12.1222H120.363V0.281921H124.762C126.161 0.281921 127.24 0.593649 127.999 1.21711C128.758 1.84056 129.137 2.72153 129.137 3.86002C129.137 4.6678 128.961 5.34276 128.609 5.88489C128.262 6.42161 127.733 6.84989 127.023 7.16975L129.584 12.0083V12.1222H126.966L124.746 7.78779ZM122.802 5.8117H124.77C125.383 5.8117 125.857 5.65719 126.193 5.34818C126.529 5.03374 126.698 4.60274 126.698 4.05518C126.698 3.49678 126.538 3.05765 126.218 2.73779C125.903 2.41794 125.418 2.25801 124.762 2.25801H122.802V5.8117Z" fill="#83898F"/>
<path d="M8.43013 30.7781H4.15268L3.33948 33.2177H0.745361L5.15292 21.3775H7.41363L11.8456 33.2177H9.25147L8.43013 30.7781ZM4.81138 28.802H7.77144L6.28327 24.3701L4.81138 28.802Z" fill="#83898F"/>
<path d="M28.8025 31.7214C28.3634 32.2473 27.7426 32.6566 26.9403 32.9494C26.1379 33.2367 25.2488 33.3804 24.273 33.3804C23.2483 33.3804 22.3484 33.1581 21.5731 32.7135C20.8033 32.2636 20.2069 31.613 19.7841 30.7619C19.3666 29.9107 19.1525 28.9105 19.1416 27.7611V26.9561C19.1416 25.7742 19.3395 24.7523 19.7353 23.8903C20.1365 23.0229 20.7111 22.3615 21.4593 21.9061C22.2128 21.4453 23.0938 21.2149 24.1022 21.2149C25.5063 21.2149 26.6041 21.551 27.3957 22.2232C28.1872 22.8901 28.6561 23.8632 28.8025 25.1426H26.4279C26.3195 24.465 26.0783 23.9689 25.7042 23.6545C25.3355 23.34 24.8259 23.1828 24.1754 23.1828C23.3459 23.1828 22.7143 23.4945 22.2806 24.118C21.8469 24.7414 21.6273 25.6685 21.6219 26.8991V27.6554C21.6219 28.8969 21.8577 29.8348 22.3294 30.4691C22.8011 31.1034 23.4923 31.4206 24.4031 31.4206C25.3193 31.4206 25.9725 31.2254 26.3629 30.835V28.7939H24.1428V26.9967H28.8025V31.7214Z" fill="#83898F"/>
<path d="M44.5721 28.0864H39.8881V31.2579H45.3853V33.2177H37.4485V21.3775H45.3691V23.3536H39.8881V26.1754H44.5721V28.0864Z" fill="#83898F"/>
<path d="M63.1067 33.2177H60.667L55.9179 25.4272V33.2177H53.4783V21.3775H55.9179L60.6752 29.1842V21.3775H63.1067V33.2177Z" fill="#83898F"/>
<path d="M81.1939 29.2737C81.1018 30.5477 80.6301 31.5507 79.779 32.2826C78.9332 33.0144 77.8164 33.3804 76.4286 33.3804C74.9106 33.3804 73.7152 32.8708 72.8423 31.8516C71.9749 30.8269 71.5412 29.4228 71.5412 27.6392V26.9154C71.5412 25.7769 71.7418 24.774 72.143 23.9066C72.5442 23.0391 73.1161 22.375 73.8588 21.9142C74.607 21.448 75.4744 21.2149 76.4611 21.2149C77.8273 21.2149 78.9278 21.5808 79.7627 22.3127C80.5976 23.0446 81.0801 24.0719 81.2102 25.3947H78.7706C78.7109 24.6303 78.4968 24.0773 78.1281 23.7358C77.7649 23.3888 77.2092 23.2153 76.4611 23.2153C75.6479 23.2153 75.038 23.5081 74.6314 24.0936C74.2302 24.6737 74.0242 25.5763 74.0133 26.8016V27.6961C74.0133 28.9755 74.2058 29.9107 74.5907 30.5016C74.9811 31.0926 75.5937 31.388 76.4286 31.388C77.1821 31.388 77.7432 31.2173 78.1119 30.8757C78.486 30.5287 78.7001 29.9947 78.7543 29.2737H81.1939Z" fill="#83898F"/>
<path d="M93.54 26.7121L96.004 21.3775H98.6713L94.7842 28.924V33.2177H92.3039V28.924L88.4168 21.3775H91.0922L93.54 26.7121Z" fill="#83898F"/>
</svg>
