<svg width="121" height="58" viewBox="0 0 121 58" fill="none" xmlns="http://www.w3.org/2000/svg">
<path d="M13.3 24.934C10.8736 24.934 8.67838 24.4026 6.71422 23.3396C4.77316 22.2535 3.24804 20.7746 2.13886 18.9029C1.02969 17.008 0.475098 14.8821 0.475098 12.5251C0.475098 10.1681 1.02969 8.05375 2.13886 6.18202C3.24804 4.28718 4.78471 2.80827 6.74888 1.74531C8.71304 0.659245 10.9083 0.116211 13.3346 0.116211C15.2295 0.116211 16.9625 0.439721 18.5339 1.08674C20.1052 1.71065 21.4455 2.64652 22.5546 3.89434L20.3016 6.07803C18.4761 4.16008 16.2 3.20111 13.4733 3.20111C11.6708 3.20111 10.0417 3.60549 8.58595 4.41427C7.13016 5.22304 5.98632 6.34377 5.15444 7.77646C4.34566 9.18604 3.94127 10.7689 3.94127 12.5251C3.94127 14.2813 4.34566 15.8758 5.15444 17.3084C5.98632 18.718 7.13016 19.8272 8.58595 20.636C10.0417 21.4448 11.6708 21.8491 13.4733 21.8491C16.1769 21.8491 18.453 20.8786 20.3016 18.9376L22.5546 21.1212C21.4455 22.3691 20.0937 23.3165 18.4992 23.9635C16.9279 24.6105 15.1948 24.934 13.3 24.934Z" fill="#83898F"/>
<path d="M29.1631 9.3709C29.7408 8.30794 30.5958 7.49917 31.7281 6.94458C32.8604 6.38999 34.2353 6.1127 35.8528 6.1127V9.33624C35.668 9.31313 35.4138 9.30158 35.0903 9.30158C33.2879 9.30158 31.8667 9.84461 30.8269 10.9307C29.8101 11.9936 29.3018 13.5188 29.3018 15.506V24.6567H25.9742V6.286H29.1631V9.3709Z" fill="#83898F"/>
<path d="M55.3479 15.5754C55.3479 15.8295 55.3248 16.1646 55.2786 16.5806H40.374C40.582 18.1981 41.2868 19.5037 42.4884 20.4973C43.7131 21.4679 45.2267 21.9531 47.0291 21.9531C49.2243 21.9531 50.9921 21.2137 52.3323 19.7348L54.1694 21.8838C53.3375 22.8543 52.2977 23.5938 51.0499 24.1022C49.8252 24.6105 48.4502 24.8647 46.9251 24.8647C44.9841 24.8647 43.2625 24.4719 41.7605 23.6862C40.2585 22.8774 39.0916 21.7567 38.2597 20.324C37.4509 18.8913 37.0465 17.2738 37.0465 15.4714C37.0465 13.6921 37.4393 12.0861 38.225 10.6534C39.0338 9.2207 40.1314 8.11153 41.5179 7.32586C42.9275 6.51708 44.5103 6.1127 46.2665 6.1127C48.0227 6.1127 49.5825 6.51708 50.9459 7.32586C52.3324 8.11153 53.4069 9.2207 54.1694 10.6534C54.9551 12.0861 55.3479 13.7267 55.3479 15.5754ZM46.2665 8.9203C44.6721 8.9203 43.3318 9.40556 42.2458 10.3761C41.1828 11.3466 40.5589 12.6176 40.374 14.1889H52.159C51.9742 12.6407 51.3387 11.3813 50.2526 10.4108C49.1897 9.41712 47.861 8.9203 46.2665 8.9203Z" fill="#83898F"/>
<path d="M65.1106 6.1127C67.6525 6.1127 69.5935 6.73661 70.9338 7.98443C72.2972 9.23226 72.9788 11.0924 72.9788 13.565V24.6567H69.8246V22.2304C69.27 23.0854 68.4728 23.744 67.433 24.2061C66.4162 24.6452 65.2031 24.8647 63.7935 24.8647C61.7369 24.8647 60.0847 24.3679 58.8368 23.3743C57.6121 22.3806 56.9998 21.075 56.9998 19.4575C56.9998 17.8399 57.589 16.5459 58.7675 15.5754C59.946 14.5817 61.8178 14.0849 64.3827 14.0849H69.6513V13.4263C69.6513 11.9936 69.2354 10.896 68.4035 10.1335C67.5716 9.3709 66.3469 8.98962 64.7293 8.98962C63.6433 8.98962 62.5803 9.17449 61.5405 9.54421C60.5006 9.89083 59.6225 10.3645 58.9062 10.9653L57.5197 8.4697C58.4671 7.70714 59.5994 7.12944 60.9166 6.73661C62.2337 6.32067 63.6317 6.1127 65.1106 6.1127ZM64.3481 22.2997C65.619 22.2997 66.7166 22.0224 67.6409 21.4679C68.5652 20.8902 69.2354 20.0814 69.6513 19.0415V16.4766H64.5214C61.7022 16.4766 60.2926 17.424 60.2926 19.3188C60.2926 20.2431 60.6508 20.971 61.3672 21.5025C62.0835 22.034 63.0771 22.2997 64.3481 22.2997Z" fill="#83898F"/>
<path d="M88.4261 23.5822C87.9408 23.9982 87.34 24.3217 86.6237 24.5528C85.9073 24.7607 85.1679 24.8647 84.4053 24.8647C82.5567 24.8647 81.124 24.3679 80.1073 23.3743C79.0905 22.3806 78.5821 20.9595 78.5821 19.1109V9.02428H75.4626V6.286H78.5821V2.26524H81.9097V6.286H87.1783V9.02428H81.9097V18.9722C81.9097 19.9659 82.1523 20.7284 82.6376 21.2599C83.1459 21.7914 83.8623 22.0571 84.7866 22.0571C85.8033 22.0571 86.6699 21.7683 87.3862 21.1906L88.4261 23.5822Z" fill="#83898F"/>
<path d="M107.403 15.5754C107.403 15.8295 107.38 16.1646 107.334 16.5806H92.429C92.6369 18.1981 93.3417 19.5037 94.5433 20.4973C95.7681 21.4679 97.2816 21.9531 99.084 21.9531C101.279 21.9531 103.047 21.2137 104.387 19.7348L106.224 21.8838C105.392 22.8543 104.353 23.5938 103.105 24.1022C101.88 24.6105 100.505 24.8647 98.98 24.8647C97.039 24.8647 95.3175 24.4719 93.8154 23.6862C92.3134 22.8774 91.1465 21.7567 90.3146 20.324C89.5058 18.8913 89.1014 17.2738 89.1014 15.4714C89.1014 13.6921 89.4943 12.0861 90.2799 10.6534C91.0887 9.2207 92.1863 8.11153 93.5728 7.32586C94.9824 6.51708 96.5653 6.1127 98.3215 6.1127C100.078 6.1127 101.637 6.51708 103.001 7.32586C104.387 8.11153 105.462 9.2207 106.224 10.6534C107.01 12.0861 107.403 13.7267 107.403 15.5754ZM98.3215 8.9203C96.727 8.9203 95.3868 9.40556 94.3007 10.3761C93.2377 11.3466 92.6138 12.6176 92.429 14.1889H104.214C104.029 12.6407 103.394 11.3813 102.308 10.4108C101.245 9.41712 99.9159 8.9203 98.3215 8.9203Z" fill="#83898F"/>
<path d="M114.172 9.3709C114.75 8.30794 115.605 7.49917 116.737 6.94458C117.87 6.38999 119.245 6.1127 120.862 6.1127V9.33624C120.677 9.31313 120.423 9.30158 120.1 9.30158C118.297 9.30158 116.876 9.84461 115.836 10.9307C114.819 11.9936 114.311 13.5188 114.311 15.506V24.6567H110.984V6.286H114.172V9.3709Z" fill="#83898F"/>
<path d="M5.917 36.0902V44.5476H18.0833V47.5286H5.917V57.3378H2.45082V33.0746H19.5737V36.0902H5.917Z" fill="#83898F"/>
<path d="M28.9744 38.7938C31.5162 38.7938 33.4573 39.4177 34.7976 40.6655C36.1609 41.9134 36.8426 43.7735 36.8426 46.2461V57.3378H33.6884V54.9115C33.1338 55.7665 32.3366 56.4251 31.2967 56.8872C30.28 57.3263 29.0668 57.5458 27.6572 57.5458C25.6006 57.5458 23.9484 57.049 22.7006 56.0554C21.4759 55.0617 20.8635 53.7561 20.8635 52.1386C20.8635 50.521 21.4528 49.227 22.6313 48.2565C23.8098 47.2628 25.6815 46.766 28.2465 46.766H33.5151V46.1074C33.5151 44.6747 33.0991 43.5771 32.2672 42.8146C31.4354 42.052 30.2107 41.6707 28.5931 41.6707C27.507 41.6707 26.4441 41.8556 25.4042 42.2253C24.3644 42.5719 23.4863 43.0456 22.7699 43.6464L21.3835 41.1508C22.3309 40.3882 23.4632 39.8105 24.7803 39.4177C26.0975 39.0018 27.4955 38.7938 28.9744 38.7938ZM28.2118 54.9808C29.4828 54.9808 30.5804 54.7035 31.5047 54.149C32.429 53.5713 33.0991 52.7625 33.5151 51.7226V49.1577H28.3851C25.566 49.1577 24.1564 50.1051 24.1564 51.9999C24.1564 52.9242 24.5146 53.6521 25.2309 54.1836C25.9473 54.7151 26.9409 54.9808 28.2118 54.9808Z" fill="#83898F"/>
<path d="M57.8785 38.9671L49.837 57.3378H46.4401L38.3986 38.9671H41.8648L48.1732 53.6984L54.6203 38.9671H57.8785Z" fill="#83898F"/>
</svg>
